<svg width="256" height="256" viewBox="0 0 256 256" fill="none" xmlns="http://www.w3.org/2000/svg">
<path d="M130.212 206.783C130.07 206.21 129.948 205.627 129.702 204.462C129.615 204.053 129.431 203.171 129.101 201.463C128.729 199.552 128.544 198.597 128.409 197.778C128.195 196.463 128.017 195.143 127.877 193.819C127.54 190.746 127.28 187.664 127.099 184.578C126.899 181.196 126.771 179.014 126.802 175.91C126.813 174.903 126.847 173.034 126.999 170.678C127.198 167.57 127.501 165.339 128.1 161.003C128.613 157.28 129.656 153.648 130.356 149.955C130.405 149.695 130.532 149.011 131.066 148.678C131.456 148.435 131.846 148.516 132.93 148.66C134.417 148.859 133.397 148.667 135.39 148.944C136.372 149.08 136.656 149.131 137.853 149.303C138.691 149.424 139.351 149.514 139.64 149.554L139.794 149.574C145.702 150.368 155.791 153.726 155.791 153.726C158.478 154.62 159.823 155.067 161.393 155.685C164.718 156.993 167.106 158.197 169.603 159.466C172.535 160.951 175.412 162.54 178.23 164.231C182.553 166.849 186.714 169.729 190.687 172.853C194.179 175.997 197.287 179.543 199.947 183.416C203.212 188.173 204.979 192.239 205.547 193.594C207.779 198.926 208.637 203.351 208.948 205.171C209.143 206.307 209.857 210.71 209.639 216.467C209.524 219.51 209.187 221.875 208.953 223.497C208.693 225.294 208.679 224.93 207.305 231.583C206.484 235.565 206.038 237.872 205.046 237.983C204.955 237.994 204.796 237.993 203.508 237.206C202.573 236.636 202.139 236.302 201.456 235.869C199.161 234.411 199.202 234.54 196.682 232.979C195.657 232.345 193.212 230.757 188.363 227.606C187.558 227.083 186.719 226.61 185.916 226.081C183.943 224.783 183.179 224.107 182.83 224.354C182.58 224.532 182.721 225.053 183.05 226.662C183.26 227.684 183.391 228.721 183.64 229.734C184.379 232.759 184.077 232.185 185.685 239.179C186.115 241.047 186.485 242.928 186.919 244.795C187.762 248.417 188.185 249.845 187.434 250.541C187.26 250.701 186.909 250.931 183.953 250.531C181.886 250.252 181.426 250.055 178.895 249.62C177.078 249.309 176.554 249.282 174.638 248.907C173.832 248.756 173.031 248.582 172.234 248.388C171.34 248.166 170.723 247.982 169.024 247.46C166.672 246.738 165.498 246.377 165.206 246.274C163.578 245.696 162.347 245.15 161.266 244.669C160.388 244.281 159.519 243.872 158.66 243.444C158.66 243.444 157.409 242.819 156.278 242.185C153.281 240.502 150.584 238.449 150.253 238.196C148.924 237.179 146.599 235.382 144.026 232.592C142.671 231.124 141.684 229.853 140.754 228.654C139.72 227.323 138.835 226.182 137.802 224.546C136.884 223.091 136.323 221.997 135.365 220.126C134.459 218.358 133.883 217.23 133.228 215.618C132.654 214.205 132.92 214.635 131.689 211.218C130.888 208.994 130.578 208.263 130.212 206.783ZM61.6102 160.155C62.1107 159.843 62.6272 159.546 63.6593 158.951C64.5436 158.444 65.4323 157.945 66.3252 157.453C68.0287 156.51 68.8805 156.039 69.6171 155.657C70.8009 155.047 72.0016 154.47 73.2177 153.928C76.0364 152.657 78.8866 151.458 81.7657 150.332C84.9197 149.098 86.9557 148.301 89.919 147.371C90.8793 147.069 92.6669 146.525 94.955 145.941C97.9712 145.17 100.187 144.77 104.495 143.998C108.195 143.337 111.972 143.206 115.701 142.73C115.962 142.697 116.654 142.607 117.134 143.01C117.487 143.307 117.53 143.703 117.727 144.778C117.998 146.254 117.866 145.225 118.218 147.205C118.392 148.181 118.431 148.468 118.637 149.659C118.781 150.494 118.899 151.15 118.952 151.436L118.98 151.589C120.049 157.453 119.974 168.086 119.974 168.086C119.955 170.919 119.944 172.334 119.842 174.018C119.625 177.587 119.218 180.228 118.783 182.997C118.277 186.243 117.655 189.471 116.917 192.673C115.763 197.594 114.31 202.441 112.567 207.185C110.655 211.477 108.243 215.529 105.382 219.256C101.866 223.831 98.5453 226.767 97.4329 227.726C93.0513 231.498 89.1078 233.68 87.4732 234.539C86.4533 235.075 82.4872 237.115 76.944 238.686C74.0147 239.517 71.6615 239.929 70.0467 240.206C68.2572 240.514 68.5991 240.389 61.8463 241.138C57.8055 241.587 55.474 241.877 55.0613 240.968C55.0236 240.883 54.9754 240.732 55.3257 239.265C55.5788 238.2 55.7601 237.683 55.9622 236.899C56.6402 234.267 56.5288 234.345 57.2351 231.466C57.5222 230.295 58.2767 227.48 59.7754 221.894C60.0237 220.966 60.2145 220.022 60.4694 219.095C61.0946 216.817 61.5016 215.883 61.1588 215.627C60.9133 215.443 60.46 215.739 59.0312 216.55C58.1247 217.065 57.1785 217.511 56.2927 218.059C53.643 219.698 54.0962 219.232 47.9412 222.922C46.2981 223.909 44.6228 224.843 42.9816 225.833C39.7974 227.753 38.5697 228.596 37.6755 228.097C37.4687 227.982 37.1429 227.719 36.6093 224.785C36.2363 222.732 36.2817 222.233 35.9124 219.693C35.648 217.868 35.5111 217.36 35.276 215.423C35.1815 214.648 35.0965 213.939 35.0267 212.977C34.9606 212.057 34.9455 211.415 34.9171 209.636C34.8765 207.178 34.8567 205.948 34.8652 205.639C34.9124 203.911 35.0512 202.572 35.174 201.396C35.3251 199.936 35.4837 198.867 35.5328 198.539C35.5328 198.539 35.7415 197.157 35.9955 195.885C36.6698 192.513 37.7888 189.314 37.9267 188.921C38.4838 187.342 39.4744 184.576 41.3319 181.268C42.3102 179.525 43.2139 178.194 44.0666 176.939C45.0128 175.544 45.8231 174.35 47.0611 172.861C48.1602 171.539 49.0281 170.668 50.5125 169.178C51.9139 167.771 52.8082 166.873 54.1387 165.753C55.305 164.771 54.9792 165.157 57.848 162.93C59.7159 161.48 60.3146 160.959 61.6102 160.155ZM84.7573 80.5022C85.2087 80.8828 85.6506 81.2813 86.5345 82.0792C86.8452 82.3597 87.5128 82.965 88.7839 84.152C90.207 85.4797 90.918 86.1445 91.5092 86.7272C92.2363 87.4448 93.0201 88.2513 94.2666 89.6168C96.3455 91.9052 98.3663 94.2456 100.327 96.6359C102.477 99.2545 103.864 100.944 105.663 103.475C106.246 104.295 107.316 105.827 108.58 107.822C110.244 110.453 111.311 112.437 113.375 116.296C115.148 119.61 116.439 123.161 118.044 126.56C118.157 126.799 118.456 127.429 118.22 128.011C118.047 128.438 117.685 128.6 116.722 129.121C115.402 129.835 116.34 129.391 114.566 130.339C113.692 130.805 113.431 130.931 112.362 131.494C111.612 131.889 111.025 132.205 110.769 132.342L110.632 132.417C105.386 135.246 95.2487 138.461 95.2487 138.461C92.5498 139.316 91.2004 139.745 89.5667 140.168C86.1067 141.065 83.4683 141.493 80.7015 141.935C75.621 142.747 71.7333 143.083 70.9212 143.151C66.8917 143.491 61.7632 143.722 55.7743 143.498C51.1017 143.006 46.5035 141.964 42.0751 140.395C36.6377 138.464 32.8189 136.215 31.5629 135.452C26.6222 132.45 23.3284 129.374 22.0064 128.085C21.1811 127.281 18.0148 124.138 14.8079 119.353C13.1128 116.824 11.9938 114.713 11.2308 113.263C10.3856 111.656 10.6094 111.942 7.81046 105.752C6.13524 102.048 5.13898 99.9202 5.87555 99.246C5.94354 99.1837 6.07292 99.0921 7.57721 98.9712C8.66885 98.8834 9.21561 98.8966 10.023 98.8465C12.736 98.6766 12.6284 98.5963 15.585 98.3772C16.7862 98.2884 19.6975 98.1364 25.4721 97.8352C26.4324 97.7851 27.389 97.6746 28.3494 97.6312C30.7083 97.5217 31.7234 97.6199 31.8604 97.2138C31.9586 96.9239 31.5393 96.5849 30.3258 95.4763C29.5562 94.7737 28.8395 94.0116 28.0434 93.3374C25.6666 91.3241 26.2492 91.6121 20.8364 86.899C19.3916 85.6402 17.9855 84.3361 16.5369 83.0811C13.7266 80.6457 12.5453 79.7392 12.7436 78.7344C12.7899 78.5021 12.94 78.1112 15.5652 76.6966C17.4019 75.7079 17.8901 75.5965 20.1924 74.4605C21.8459 73.6446 22.2869 73.3575 24.0565 72.535C24.7974 72.1845 25.5474 71.8539 26.3059 71.5435C27.1595 71.1959 27.7667 70.9825 29.4495 70.4056C31.7744 69.6086 32.9378 69.2091 33.2353 69.1213C34.8916 68.6331 36.209 68.3507 37.3648 68.1033C38.3033 67.9018 39.2463 67.7217 40.193 67.5632C40.193 67.5632 41.5727 67.3337 42.8607 67.1826C46.2744 66.7822 49.6636 66.8568 50.08 66.8672C51.7534 66.9097 54.6912 66.9966 58.4118 67.7407C60.3703 68.1326 61.9161 68.5811 63.3742 69.0032C64.9918 69.4726 66.379 69.8748 68.177 70.5916C69.7729 71.2281 70.8711 71.7852 72.7465 72.7352C74.5181 73.6342 75.6475 74.2074 77.1244 75.1262C78.4181 75.9317 77.9516 75.741 80.9555 77.7816C82.9102 79.1103 83.592 79.5192 84.7573 80.5013V80.5022ZM167.664 77.9025C167.442 78.4493 167.199 78.9922 166.714 80.0801C166.543 80.4616 166.174 81.2832 165.438 82.8592C164.614 84.6232 164.202 85.5052 163.831 86.2474C163.231 87.4365 162.599 88.6085 161.934 89.7622C160.4 92.4469 158.799 95.0924 157.132 97.6964C155.305 100.549 154.127 102.39 152.276 104.884C151.676 105.692 150.55 107.183 149.043 109.001C147.055 111.397 145.498 113.024 142.466 116.18C139.861 118.891 136.883 121.216 134.146 123.792C133.953 123.974 133.447 124.453 132.821 124.408C132.362 124.376 132.095 124.082 131.303 123.327C130.216 122.292 130.928 123.047 129.478 121.652C128.764 120.965 128.564 120.755 127.698 119.912C127.267 119.493 126.834 119.076 126.399 118.66C126.328 118.593 126.295 118.56 126.286 118.553C121.974 114.438 115.785 105.791 115.785 105.791C114.136 103.488 113.313 102.337 112.405 100.915C110.482 97.9003 109.26 95.5235 107.985 93.0286C105.643 88.4487 104.122 84.8546 103.806 84.1029C101.847 79.4434 100.174 74.6689 98.7955 69.8059C97.8192 65.2096 97.3888 60.514 97.5132 55.8168C97.669 50.0489 98.6284 45.722 98.9665 44.2923C100.293 38.6651 102.201 34.5819 103.019 32.9256C103.528 31.8925 105.539 27.9112 109.1 23.3823C110.981 20.9884 112.643 19.2717 113.787 18.0979C115.052 16.7975 114.85 17.0997 119.872 12.5245C122.878 9.78597 124.593 8.18063 125.462 8.67357C125.542 8.71889 125.67 8.81332 126.249 10.2062C126.67 11.2176 126.827 11.7426 127.124 12.4943C128.123 15.0232 128.167 14.8947 129.288 17.6389C129.744 18.7542 130.789 21.4766 132.859 26.8744C133.204 27.7724 133.604 28.6478 133.943 29.5477C134.775 31.7574 134.996 32.7537 135.425 32.7584C135.731 32.7622 135.923 32.2579 136.602 30.7621C137.033 29.8121 137.537 28.8952 137.932 27.9311C139.112 25.048 139.018 25.6911 141.828 19.0866C142.579 17.3235 143.384 15.5831 144.13 13.8173C145.578 10.3932 146.076 8.98897 147.092 8.86715C147.328 8.83882 147.746 8.86054 149.902 10.9201C151.41 12.3621 151.666 12.7917 153.458 14.6303C154.745 15.9514 155.154 16.281 156.484 17.7097C157.015 18.282 157.501 18.8052 158.122 19.5427C158.717 20.2481 159.106 20.759 160.175 22.1811C161.652 24.1462 162.391 25.1293 162.566 25.3852C163.544 26.8092 164.219 27.9745 164.811 28.9981C165.293 29.8286 165.756 30.6699 166.199 31.5214C166.199 31.5214 166.843 32.7622 167.385 33.9407C168.821 37.0636 169.797 40.3101 169.916 40.7086C170.393 42.314 171.218 45.1337 171.66 48.9025C171.892 50.8865 171.943 52.4956 171.993 54.0112C172.045 55.6959 172.092 57.1388 171.966 59.0709C171.854 60.7858 171.664 62.0011 171.339 64.0786C171.032 66.0419 170.837 67.2931 170.418 68.9815C170.052 70.4613 170.089 69.9579 169.077 73.4463C168.417 75.7164 168.239 76.4898 167.665 77.9025H167.664ZM195.757 155.948C195.168 155.905 194.577 155.843 193.392 155.716C192.976 155.672 192.08 155.575 190.354 155.362C188.422 155.123 187.456 155.004 186.636 154.881C185.32 154.678 184.009 154.439 182.706 154.163C179.679 153.534 176.668 152.828 173.677 152.048C170.398 151.192 168.284 150.641 165.341 149.651C164.387 149.33 162.62 148.719 160.426 147.847C157.532 146.697 155.504 145.72 151.565 143.811C148.182 142.172 145.051 140.058 141.754 138.251C141.523 138.125 140.911 137.791 140.759 137.181C140.649 136.734 140.846 136.39 141.319 135.402C141.967 134.049 141.47 134.96 142.348 133.151C142.781 132.259 142.919 132.004 143.452 130.919C143.826 130.159 144.115 129.56 144.242 129.297L144.309 129.156C146.891 123.783 153.202 115.226 153.202 115.226C154.882 112.946 155.723 111.807 156.795 110.504C159.068 107.745 160.95 105.847 162.929 103.863C165.246 101.533 167.647 99.2878 170.126 97.1307C173.186 94.4866 177.199 91.2854 182.175 87.9482C186.245 85.599 190.578 83.7384 195.084 82.405C200.617 80.7713 205.029 80.3464 206.493 80.2255C212.254 79.7496 216.728 80.3011 218.555 80.5674C219.696 80.7336 224.104 81.4144 229.511 83.4013C232.369 84.4514 234.516 85.5014 235.985 86.2257C237.613 87.0284 237.263 86.9292 243.167 90.292C246.698 92.3034 248.755 93.4403 248.556 94.4186C248.537 94.5083 248.487 94.6585 247.342 95.6406C246.51 96.3526 246.059 96.6642 245.435 97.1798C243.34 98.9108 243.476 98.9126 241.212 100.828C240.292 101.606 238.026 103.441 233.531 107.078C232.784 107.683 232.075 108.334 231.324 108.935C229.48 110.409 228.601 110.927 228.727 111.336C228.819 111.628 229.358 111.655 230.992 111.838C232.028 111.956 233.055 112.15 234.095 112.228C237.201 112.46 236.561 112.569 243.71 113.201C245.619 113.37 247.523 113.599 249.432 113.763C253.137 114.081 254.626 114.12 255.056 115.049C255.156 115.264 255.263 115.67 253.972 118.356C253.067 120.235 252.736 120.613 251.542 122.885C250.684 124.518 250.496 125.008 249.548 126.713C249.169 127.396 248.82 128.019 248.31 128.838C247.824 129.622 247.459 130.151 246.436 131.607C245.023 133.618 244.318 134.625 244.128 134.87C243.075 136.24 242.175 137.242 241.386 138.122C240.745 138.837 240.088 139.537 239.415 140.222C239.415 140.222 238.434 141.218 237.48 142.097C234.954 144.428 232.168 146.359 231.825 146.596C230.447 147.545 228.02 149.202 224.572 150.786C222.756 151.621 221.242 152.167 219.815 152.681C218.23 153.253 216.872 153.743 214.996 154.219C213.33 154.643 212.116 154.838 210.038 155.17C208.078 155.486 206.827 155.686 205.092 155.811C203.571 155.919 204.062 155.798 200.432 155.915C198.069 155.988 197.278 156.058 195.757 155.948Z" fill="#F3ABC1"/>
<path d="M62.24 157.48C59.552 157.48 58.208 155.976 58.208 152.968C58.208 150.472 59.104 147.336 60.896 143.56C61.472 142.472 62.176 141.192 63.008 139.72C63.904 138.184 64.672 136.712 65.312 135.304C66.016 133.832 66.368 132.68 66.368 131.848C66.368 130.952 65.92 130.504 65.024 130.504C63.872 130.504 62.624 131.176 61.28 132.52C59.936 133.8 58.592 135.464 57.248 137.512C55.968 139.496 54.752 141.608 53.6 143.848C52.512 146.088 51.552 148.168 50.72 150.088C49.952 151.944 49.408 153.384 49.088 154.408C48.832 155.432 48.416 156.072 47.84 156.328C47.328 156.584 46.72 156.712 46.016 156.712C45.376 156.648 44.704 156.744 44 157C45.344 152.584 46.784 147.912 48.32 142.984C49.856 137.992 51.52 132.968 53.312 127.912C55.104 122.856 57.056 118.024 59.168 113.416C61.344 108.744 63.776 104.552 66.464 100.84C68.128 98.6 69.792 96.904 71.456 95.752C73.184 94.6 74.72 94.024 76.064 94.024C77.088 94.024 77.888 94.376 78.464 95.08C79.104 95.72 79.424 96.712 79.424 98.056C79.424 99.08 79.2 100.36 78.752 101.896C78.304 103.368 77.536 105.032 76.448 106.888C75.168 109.192 73.632 111.56 71.84 113.992C70.112 116.424 68.288 118.728 66.368 120.904C64.512 123.08 62.72 124.968 60.992 126.568C59.328 128.104 57.92 129.16 56.768 129.736C56.576 130.184 56.224 131.144 55.712 132.616C55.2 134.088 54.656 135.752 54.08 137.608C53.568 139.4 53.056 141.128 52.544 142.792C53.76 140.488 55.168 138.216 56.768 135.976C58.432 133.672 60.128 131.784 61.856 130.312C63.584 128.776 65.152 128.008 66.56 128.008C68.928 128.008 70.112 129.064 70.112 131.176C70.112 132.456 69.76 134.088 69.056 136.072C68.352 138.056 67.456 140.36 66.368 142.984C65.216 145.672 64.352 147.944 63.776 149.8C63.264 151.592 63.008 153 63.008 154.024C63.008 155.24 63.424 155.848 64.256 155.848C65.152 155.848 66.592 155.016 68.576 153.352C70.432 151.688 72.16 149.608 73.76 147.112C75.36 144.552 77.28 141.096 79.52 136.744C79.648 136.616 79.744 136.552 79.808 136.552C80 136.552 80.192 136.648 80.384 136.84C80.64 137.032 80.704 137.192 80.576 137.32C78.208 141.736 76.064 145.448 74.144 148.456C72.288 151.464 70.432 153.736 68.576 155.272C66.72 156.744 64.608 157.48 62.24 157.48ZM57.344 127.72C59.136 126.632 61.12 124.904 63.296 122.536C65.536 120.104 67.712 117.384 69.824 114.376C71.936 111.368 73.664 108.52 75.008 105.832C75.84 104.168 76.416 102.696 76.736 101.416C77.12 100.072 77.312 98.92 77.312 97.96C77.312 96.168 76.8 95.272 75.776 95.272C75.008 95.272 74.016 95.848 72.8 97C71.648 98.152 70.336 100.04 68.864 102.664C67.648 104.84 66.4 107.24 65.12 109.864C63.904 112.424 62.752 114.952 61.664 117.448C60.576 119.88 59.648 122.024 58.88 123.88C58.112 125.736 57.6 127.016 57.344 127.72ZM83.4328 157.48C80.9368 157.48 79.6888 156.136 79.6888 153.448C79.6888 151.208 80.6808 147.944 82.6648 143.656C83.2408 142.504 83.8808 141.128 84.5848 139.528C85.3528 137.928 85.9928 136.392 86.5048 134.92C87.0808 133.384 87.3688 132.136 87.3688 131.176C87.3688 130.28 87.0488 129.832 86.4088 129.832C85.6408 129.832 84.8728 130.312 84.1048 131.272C83.3368 132.232 82.6328 133.32 81.9928 134.536C81.4168 135.688 80.9368 136.616 80.5528 137.32C79.5928 139.176 78.5048 141.192 77.2888 143.368C76.0728 145.544 74.8568 147.464 73.6408 149.128H73.5448C73.4168 149.128 73.2248 149.064 72.9688 148.936C72.7767 148.744 72.7127 148.616 72.7767 148.552C73.9928 146.888 75.1768 144.968 76.3288 142.792C77.5448 140.616 78.5688 138.632 79.4008 136.84C80.1048 135.496 80.8408 134.12 81.6088 132.712C82.4408 131.24 83.4008 130.024 84.4888 129.064C85.5768 128.04 86.8248 127.528 88.2328 127.528C90.6008 127.528 91.7848 128.456 91.7848 130.312C91.7848 131.528 91.4008 133.16 90.6328 135.208C89.8648 137.256 88.8408 139.848 87.5608 142.984C86.4088 145.672 85.5448 147.944 84.9688 149.8C84.4568 151.592 84.2008 153 84.2008 154.024C84.2008 155.24 84.6168 155.848 85.4488 155.848C86.3448 155.848 87.7848 155.016 89.7688 153.352C91.4968 151.816 93.1608 149.928 94.7608 147.688C96.3608 145.384 98.0888 142.28 99.9448 138.376C100.457 137.352 100.969 136.072 101.481 134.536C102.057 132.936 102.537 131.528 102.921 130.312C103.369 129.096 103.593 128.488 103.593 128.488C104.681 128.232 105.897 127.912 107.241 127.528C108.585 127.08 109.769 126.632 110.793 126.184C110.153 126.824 109.225 128.264 108.009 130.504C106.857 132.744 105.641 135.304 104.361 138.184C103.145 141 102.089 143.752 101.193 146.44C100.105 149.512 99.5608 151.976 99.5608 153.832C99.5608 155.368 100.041 156.136 101.001 156.136C101.449 156.136 101.993 155.944 102.633 155.56C103.337 155.176 104.169 154.568 105.129 153.736C105.961 153.032 106.729 152.2 107.433 151.24C108.201 150.28 108.937 149.288 109.641 148.264C110.601 146.856 111.593 145.224 112.617 143.368C113.705 141.512 114.889 139.336 116.169 136.84C116.297 136.648 116.393 136.552 116.457 136.552C116.649 136.552 116.809 136.648 116.937 136.84C117.129 136.968 117.193 137.096 117.129 137.224C113.673 144.008 110.633 149.096 108.009 152.488C105.385 155.816 102.537 157.48 99.4648 157.48C98.2488 157.48 97.3528 157.064 96.7768 156.232C96.2648 155.4 96.0088 154.28 96.0088 152.872C96.0088 151.784 96.1368 150.568 96.3928 149.224C96.6488 147.88 97.0008 146.504 97.4488 145.096C95.0808 149.192 92.8088 152.296 90.6328 154.408C88.4568 156.456 86.0568 157.48 83.4328 157.48ZM130.649 121.48C129.753 121.48 128.985 121.192 128.345 120.616C127.769 119.976 127.481 119.24 127.481 118.408C127.481 117.32 127.833 116.392 128.537 115.624C129.305 114.856 130.201 114.472 131.225 114.472C132.121 114.472 132.889 114.792 133.529 115.432C134.169 116.072 134.489 116.872 134.489 117.832C134.489 118.856 134.105 119.72 133.337 120.424C132.569 121.128 131.673 121.48 130.649 121.48ZM120.089 157.48C118.937 157.48 118.009 157.064 117.305 156.232C116.665 155.336 116.345 154.184 116.345 152.776C116.345 150.984 116.697 149.064 117.401 147.016C118.169 144.968 119.033 142.92 119.993 140.872C121.017 138.76 121.913 136.776 122.681 134.92C123.001 134.024 123.289 133.224 123.545 132.52C123.801 131.816 123.929 131.24 123.929 130.792C123.929 130.152 123.641 129.832 123.065 129.832C122.297 129.832 121.529 130.312 120.761 131.272C119.993 132.232 119.289 133.32 118.649 134.536C118.073 135.688 117.593 136.616 117.209 137.32C116.249 139.176 115.193 141.096 114.041 143.08C112.953 145.064 111.833 146.888 110.681 148.552C110.681 148.616 110.617 148.648 110.489 148.648C110.361 148.648 110.201 148.552 110.009 148.36C109.817 148.168 109.753 148.04 109.817 147.976C111.033 146.248 112.153 144.424 113.177 142.504C114.265 140.52 115.257 138.632 116.153 136.84C116.793 135.496 117.497 134.12 118.265 132.712C119.097 131.24 120.057 130.024 121.145 129.064C122.233 128.04 123.481 127.528 124.889 127.528C125.529 127.528 126.265 127.688 127.097 128.008C128.057 128.392 128.537 129.224 128.537 130.504C128.537 131.144 128.409 131.912 128.153 132.808C127.961 133.64 127.673 134.6 127.289 135.688C126.457 137.864 125.529 140.072 124.505 142.312C123.545 144.488 122.649 146.696 121.817 148.936C121.177 150.664 120.857 152.2 120.857 153.544C120.857 155.016 121.337 155.752 122.297 155.752C123.193 155.752 124.569 154.952 126.425 153.352C128.281 151.688 130.009 149.608 131.609 147.112C133.209 144.552 135.129 141.128 137.369 136.84C137.433 136.712 137.561 136.648 137.753 136.648C137.881 136.648 138.009 136.744 138.137 136.936C138.329 137.064 138.393 137.192 138.329 137.32C134.937 143.912 131.897 148.936 129.209 152.392C126.521 155.784 123.481 157.48 120.089 157.48ZM123.036 194.536C121.948 194.536 121.052 194.216 120.348 193.576C119.58 193 119.196 191.944 119.196 190.408C119.196 188.616 119.804 186.472 121.02 183.976C122.172 181.544 124.028 179.016 126.588 176.392C128.764 174.152 131.292 171.912 134.173 169.672C137.117 167.496 139.965 165.512 142.717 163.72C145.469 161.928 147.677 160.584 149.341 159.688C149.661 158.28 149.821 156.904 149.821 155.56C149.821 154.344 149.597 153.256 149.149 152.296C148.765 151.336 147.965 150.632 146.749 150.184C144.829 151.656 142.653 152.744 140.221 153.448C140.029 153.512 139.741 153.544 139.357 153.544C138.205 153.544 137.629 153.096 137.629 152.2C137.629 151.432 138.173 150.728 139.261 150.088C140.413 149.448 141.533 149.032 142.621 148.84C143.709 148.648 144.861 148.52 146.077 148.456C147.293 147.432 148.317 146.216 149.149 144.808C149.981 143.336 150.589 141.8 150.973 140.2C151.165 139.432 151.293 138.728 151.357 138.088C151.421 137.384 151.453 136.712 151.453 136.072C151.453 134.024 151.037 132.552 150.205 131.656C149.437 130.696 148.445 130.216 147.229 130.216C145.821 130.216 144.285 130.824 142.621 132.04C141.021 133.256 139.581 135.016 138.301 137.32L133.597 145.864H133.501C133.373 145.864 133.181 145.768 132.925 145.576C132.733 145.384 132.669 145.256 132.733 145.192C133.245 144.424 133.885 143.336 134.653 141.928C135.421 140.456 136.317 138.76 137.341 136.84C139.005 133.832 140.893 131.656 143.005 130.312C145.181 128.904 147.229 128.2 149.149 128.2C151.069 128.2 152.669 128.808 153.949 130.024C155.293 131.176 155.965 132.808 155.965 134.92C155.965 135.88 155.805 136.904 155.484 137.992C155.165 139.08 154.653 140.264 153.949 141.544C153.245 142.824 152.445 144.072 151.549 145.288C150.717 146.44 149.757 147.528 148.669 148.552C150.397 148.872 151.613 149.544 152.317 150.568C153.021 151.528 153.437 152.616 153.565 153.832C153.757 155.048 153.821 156.168 153.757 157.192C155.741 155.976 157.725 153.832 159.709 150.76C161.693 147.624 164.029 143.72 166.717 139.048C166.909 138.792 167.101 138.664 167.293 138.664C167.485 138.664 167.613 138.76 167.677 138.952C167.741 139.08 167.709 139.24 167.581 139.432C167.005 140.392 166.205 141.8 165.181 143.656C164.157 145.512 162.973 147.464 161.629 149.512C160.349 151.56 159.005 153.416 157.597 155.08C156.189 156.68 154.845 157.768 153.565 158.344C153.245 160.712 152.477 163.496 151.261 166.696C150.109 169.96 148.605 173.128 146.749 176.2C145.661 177.992 144.221 179.944 142.429 182.056C140.637 184.168 138.653 186.152 136.477 188.008C134.301 189.928 132.06 191.496 129.756 192.712C127.388 193.928 125.148 194.536 123.036 194.536ZM123.42 193.192C125.212 193.192 127.484 192.296 130.236 190.504C132.925 188.776 135.741 186.056 138.685 182.344C141.181 179.144 143.293 175.624 145.021 171.784C146.813 167.944 148.125 164.36 148.957 161.032C146.973 162.12 144.381 163.752 141.181 165.928C137.981 168.104 134.333 171.176 130.236 175.144C126.716 178.6 124.188 181.576 122.652 184.072C121.116 186.632 120.348 188.68 120.348 190.216C120.348 192.2 121.372 193.192 123.42 193.192ZM179.615 157.48C176.927 157.48 175.583 155.976 175.583 152.968C175.583 150.472 176.479 147.336 178.271 143.56C178.847 142.472 179.551 141.192 180.383 139.72C181.279 138.184 182.047 136.712 182.687 135.304C183.391 133.832 183.743 132.68 183.743 131.848C183.743 130.952 183.295 130.504 182.399 130.504C181.247 130.504 179.999 131.176 178.655 132.52C177.311 133.8 175.967 135.464 174.623 137.512C173.343 139.496 172.127 141.608 170.975 143.848C169.887 146.088 168.927 148.168 168.095 150.088C167.327 151.944 166.783 153.384 166.463 154.408C166.207 155.432 165.791 156.072 165.215 156.328C164.703 156.584 164.095 156.712 163.391 156.712C162.751 156.648 162.079 156.744 161.375 157C162.719 152.584 164.159 147.912 165.695 142.984C167.231 137.992 168.895 132.968 170.687 127.912C172.479 122.856 174.431 118.024 176.543 113.416C178.719 108.744 181.151 104.552 183.839 100.84C185.503 98.6 187.167 96.904 188.831 95.752C190.559 94.6 192.095 94.024 193.439 94.024C194.463 94.024 195.263 94.376 195.839 95.08C196.479 95.72 196.799 96.712 196.799 98.056C196.799 99.08 196.575 100.36 196.127 101.896C195.679 103.368 194.911 105.032 193.823 106.888C192.543 109.192 191.007 111.56 189.215 113.992C187.487 116.424 185.663 118.728 183.743 120.904C181.887 123.08 180.095 124.968 178.367 126.568C176.703 128.104 175.295 129.16 174.143 129.736C173.951 130.184 173.599 131.144 173.087 132.616C172.575 134.088 172.031 135.752 171.455 137.608C170.943 139.4 170.431 141.128 169.919 142.792C171.135 140.488 172.543 138.216 174.143 135.976C175.807 133.672 177.503 131.784 179.231 130.312C180.959 128.776 182.527 128.008 183.935 128.008C186.303 128.008 187.487 129.064 187.487 131.176C187.487 132.456 187.135 134.088 186.431 136.072C185.727 138.056 184.831 140.36 183.743 142.984C182.591 145.672 181.727 147.944 181.151 149.8C180.639 151.592 180.383 153 180.383 154.024C180.383 155.24 180.799 155.848 181.631 155.848C182.527 155.848 183.967 155.016 185.951 153.352C187.807 151.688 189.535 149.608 191.135 147.112C192.735 144.552 194.655 141.096 196.895 136.744C197.023 136.616 197.119 136.552 197.183 136.552C197.375 136.552 197.567 136.648 197.759 136.84C198.015 137.032 198.079 137.192 197.951 137.32C195.583 141.736 193.439 145.448 191.519 148.456C189.663 151.464 187.807 153.736 185.951 155.272C184.095 156.744 181.983 157.48 179.615 157.48ZM174.719 127.72C176.511 126.632 178.495 124.904 180.671 122.536C182.911 120.104 185.087 117.384 187.199 114.376C189.311 111.368 191.039 108.52 192.383 105.832C193.215 104.168 193.791 102.696 194.111 101.416C194.495 100.072 194.687 98.92 194.687 97.96C194.687 96.168 194.175 95.272 193.151 95.272C192.383 95.272 191.391 95.848 190.175 97C189.023 98.152 187.711 100.04 186.239 102.664C185.023 104.84 183.775 107.24 182.495 109.864C181.279 112.424 180.127 114.952 179.039 117.448C177.951 119.88 177.023 122.024 176.255 123.88C175.487 125.736 174.975 127.016 174.719 127.72ZM211.368 121.48C210.472 121.48 209.704 121.192 209.064 120.616C208.488 119.976 208.2 119.24 208.2 118.408C208.2 117.32 208.552 116.392 209.256 115.624C210.024 114.856 210.92 114.472 211.944 114.472C212.84 114.472 213.608 114.792 214.248 115.432C214.888 116.072 215.208 116.872 215.208 117.832C215.208 118.856 214.824 119.72 214.056 120.424C213.288 121.128 212.392 121.48 211.368 121.48ZM200.808 157.48C199.656 157.48 198.728 157.064 198.024 156.232C197.384 155.336 197.064 154.184 197.064 152.776C197.064 150.984 197.416 149.064 198.12 147.016C198.888 144.968 199.752 142.92 200.712 140.872C201.736 138.76 202.632 136.776 203.4 134.92C203.72 134.024 204.008 133.224 204.264 132.52C204.52 131.816 204.648 131.24 204.648 130.792C204.648 130.152 204.36 129.832 203.784 129.832C203.016 129.832 202.248 130.312 201.48 131.272C200.712 132.232 200.008 133.32 199.368 134.536C198.792 135.688 198.312 136.616 197.928 137.32C196.968 139.176 195.912 141.096 194.76 143.08C193.672 145.064 192.552 146.888 191.4 148.552C191.4 148.616 191.336 148.648 191.208 148.648C191.08 148.648 190.92 148.552 190.728 148.36C190.536 148.168 190.472 148.04 190.536 147.976C191.752 146.248 192.872 144.424 193.896 142.504C194.984 140.52 195.976 138.632 196.872 136.84C197.512 135.496 198.216 134.12 198.984 132.712C199.816 131.24 200.776 130.024 201.864 129.064C202.952 128.04 204.2 127.528 205.608 127.528C206.248 127.528 206.984 127.688 207.816 128.008C208.776 128.392 209.256 129.224 209.256 130.504C209.256 131.144 209.128 131.912 208.872 132.808C208.68 133.64 208.392 134.6 208.008 135.688C207.176 137.864 206.248 140.072 205.224 142.312C204.264 144.488 203.368 146.696 202.536 148.936C201.896 150.664 201.576 152.2 201.576 153.544C201.576 155.016 202.056 155.752 203.016 155.752C203.912 155.752 205.288 154.952 207.144 153.352C209 151.688 210.728 149.608 212.328 147.112C213.928 144.552 215.848 141.128 218.088 136.84C218.152 136.712 218.28 136.648 218.472 136.648C218.6 136.648 218.728 136.744 218.856 136.936C219.048 137.064 219.112 137.192 219.048 137.32C215.656 143.912 212.616 148.936 209.928 152.392C207.24 155.784 204.2 157.48 200.808 157.48Z" fill="#5F4D54"/>
</svg>
